General                          : ChattChitto RG - Movies Release
==========
Complete name                    : Avatar 2009 DVDScr.MP4
Format                           : MPEG-4
Format profile                   : Base Media
Codec ID                         : isom
File size                        : 2.34 GiB
Duration                         : 2h 36mn
Overall bit rate                 : 2 130 Kbps
Encoded date                     : UTC 2010-02-06 18:30:30

Video
==========
ID                               : 1
Format                           : AVC
Format/Info                      : Advanced Video Codec
Format profile                   : High@L3.0
Format settings, CABAC           : Yes
Format settings, ReFrames        : 3 frames
Codec ID                         : avc1
Codec ID/Info                    : Advanced Video Coding
Duration                         : 2h 36mn
Bit rate mode                    : Variable
Bit rate                         : 2 000 Kbps
Maximum bit rate                 : 6 724 Kbps
Width                            : 720 pixels
Height                           : 400 pixels
Display aspect ratio             : 16:9
Frame rate mode                  : Constant
Frame rate                       : 29.970 fps
Resolution                       : 8 bits
Colorimetry                      : 4:2:0
Scan type                        : Progressive
Bits/(Pixel*Frame)               : 0.232
Stream size                      : 2.19 GiB (94%)
Writing library                  : x264 core 76 r1271 496d79d
Encoded date                     : UTC 2010-02-06 18:30:30

Audio
==========
ID                               : 2
Format                           : AAC
Format/Info                      : Advanced Audio Codec
Format version                   : Version 4
Format profile                   : LC
Format settings, SBR             : Yes
Format settings, PS              : No
Codec ID                         : 67
Duration                         : 2h 36mn
Bit rate mode                    : Variable
Bit rate                         : 127 Kbps
Maximum bit rate                 : 135 Kbps
Channel(s)                       : 2 channels
Channel positions                : L R
Sampling rate                    : 48.0 KHz
Stream size                      : 142 MiB (6%)
Language                         : English
Encoded date                     : UTC 2010-02-06 18:32:27

Subtitles                        : English [.srt files]



----------------------------------------------------
IMDB Link: http://www.imdb.com/title/tt0499549/
----------------------------------------------------


Screen Shots:
==============
http://bayimg.com/jaKlBAACE 
http://bayimg.com/JaKlaaace 
http://bayimg.com/IAkLpAaCe 
http://bayimg.com/IaKloAaCE 
http://bayimg.com/iAKLNAAcE



Plot:
======
A paraplegic marine dispatched to the moon Pandora on a unique mission becomes 
torn between following his orders and protecting the world he feels is his home.


Source:
========
Avatar 2009 DVD Screener-P2PLOVERS DVDR 4.13Gb


Notes:
=======
ChattChitto RG Encourages Burning this Film with ConvertXtoDVD.
Enhanced for your viewing pleasure ;)